# xmcd
#
# Track frame offsets:
#	150
#	24147
#	32786
#	45034
#	50288
#	52067
#	82828
#	86181
#	96206
#	107375
#	118658
#	132041
#	147460
#	160519
#	172637
#	194506
#	216833
#	242166
#	264365
#	281003
#	298596
#	312663
#	321994
#	333570
#	338505
#	343179
#	345984
#	350602
#
# Disc length: 4775 seconds
#
# Revision: 0
# Processed by: cddbd v1.5.2PL0 Copyright (c) Steve Scherf et al.
# Submitted via: EZCDAudioConverter 1.3.4.1
#
DISCID=9312a51c
DTITLE=Beach Boys - The Smile Sessions
DYEAR=2011
DGENRE=
TTITLE0=Do You Like Worms - Part 1
TTITLE1=Do You Like Worms - Part 2 (Bicycle Rider)
TTITLE2=Do You Like Worms - Part 3
TTITLE3=Do You Like Worms - Part 4 (Bicycle Rider)
TTITLE4=Do You Like Worms - Bicycle Rider Overdubs (Heroes And Villains Part 2)
TTITLE5=My Only Sunshine - Part 1 and 2
TTITLE6=My Only Sunshine - Part 2 [Master Take With Vocal Overdubs]
TTITLE7=Cabin Essence - Verse
TTITLE8=Cabin Essence - Chorus
TTITLE9=Cabin Essence - Tag
TTITLE10=Wonderful [Version 1]
TTITLE11=Wonderful [Version 2]
TTITLE12=Wonderful [Version 2 Tag]
TTITLE13=Wonderful [Version 3]
TTITLE14=Look (Song For Children)
TTITLE15=Child Is Father Of The Man [Version 1]
TTITLE16=Child Is Father Of The Man [Version 2]
TTITLE17=Surf's Up - 1st Movement
TTITLE18=Surf's Up - Talking Horns
TTITLE19=Surf's Up - Piano Demo [Master Take]
TTITLE20=I Wanna Be Around - Workshop (Friday Night)
TTITLE21=Vega-Tables - Verse [Master Take Track]
TTITLE22=Vega-Tables - Sleep A Lot [Chorus]
TTITLE23=Vega-Tables - Chorus 1 [Master Take]
TTITLE24=Vega-Tables - 2nd Chorus [Master Take and Backing Vocals]
TTITLE25=Vega-Tables - Insert (Part 4) [Master Take]
TTITLE26=Vega-Tables - Crunching Session
TTITLE27=Workshop Session
EXTD=
EXTT0=
EXTT1=
EXTT2=
EXTT3=
EXTT4=
EXTT5=
EXTT6=
EXTT7=
EXTT8=
EXTT9=
EXTT10=
EXTT11=
EXTT12=
EXTT13=
EXTT14=
EXTT15=
EXTT16=
EXTT17=
EXTT18=
EXTT19=
EXTT20=
EXTT21=
EXTT22=
EXTT23=
EXTT24=
EXTT25=
EXTT26=
EXTT27=
PLAYORDER=
